<svg width="122" height="47" viewBox="0 0 122 47" fill="none" xmlns="http://www.w3.org/2000/svg">
<path fill-rule="evenodd" clip-rule="evenodd" d="M12.1295 3.11011C13.0522 3.11011 13.9542 3.38371 14.7214 3.89633C15.4886 4.40895 16.0865 5.13756 16.4396 5.99001C16.7927 6.84247 16.8851 7.78049 16.7051 8.68545C16.5251 9.59041 16.0808 10.4217 15.4283 11.0741C14.7759 11.7265 13.9446 12.1709 13.0397 12.3509C12.1347 12.5309 11.1967 12.4385 10.3442 12.0854C9.49178 11.7323 8.76317 11.1343 8.25055 10.3672C7.73793 9.59996 7.46432 8.698 7.46432 7.77531C7.46432 6.53802 7.95583 5.3514 8.83073 4.47651C9.70562 3.60161 10.8922 3.11011 12.1295 3.11011Z" fill="#14A48D"/>
<path fill-rule="evenodd" clip-rule="evenodd" d="M26.1251 0C27.3554 0 28.558 0.364816 29.5809 1.04831C30.6039 1.7318 31.4011 2.70327 31.8719 3.83988C32.3427 4.97648 32.4659 6.22717 32.2259 7.43378C31.9859 8.6404 31.3935 9.74875 30.5235 10.6187C29.6536 11.4886 28.5453 12.081 27.3387 12.321C26.132 12.561 24.8814 12.4378 23.7448 11.967C22.6081 11.4962 21.6367 10.699 20.9532 9.67606C20.2697 8.65315 19.9049 7.45052 19.9049 6.22027C19.9049 4.57055 20.5602 2.9884 21.7268 1.82188C22.8933 0.655351 24.4754 0 26.1251 0Z" fill="#14A48D"/>
<path fill-rule="evenodd" clip-rule="evenodd" d="M4.85211 14.3066H33.7136C34.9991 14.3107 36.2309 14.812 37.1399 15.701C38.049 16.59 38.5615 17.7946 38.5657 19.0519V32.5712C38.5629 33.8294 38.051 35.0353 37.1418 35.9254C36.2326 36.8156 35.0001 37.3175 33.7136 37.3216H4.85211C3.567 37.3176 2.33566 36.8167 1.4267 35.9282C0.51773 35.0397 0.0048796 33.8358 0 32.579V19.0596C0.00209032 17.801 0.51371 16.5944 1.42298 15.7038C2.33224 14.8131 3.56517 14.3107 4.85211 14.3066Z" fill="#14A48D"/>
<path fill-rule="evenodd" clip-rule="evenodd" d="M9.99352 35.4556H24.2591L8.7084 46.03L9.99352 35.4556Z" fill="#14A48D"/>
<path fill-rule="evenodd" clip-rule="evenodd" d="M39.8517 21.4245L48.5181 16.7948V34.8336L39.8098 30.0759L39.8517 21.4245Z" fill="#14A48D"/>
<path d="M3.73218 32.3454H6.54874L7.42447 30.4072H11.8558L12.7315 32.3454H15.5507L9.64143 19.2828L3.73743 32.3454H3.73218ZM8.44748 28.1334L9.64143 25.4252L10.8222 28.1334H8.44748Z" fill="white"/>
<path d="M23.2599 22.8585C23.2636 22.3955 23.1763 21.9364 23.0033 21.5087C22.8303 21.0809 22.5751 20.6933 22.253 20.3688C21.9277 20.0196 21.5357 19.743 21.1015 19.5562C20.6672 19.3694 20.2001 19.2765 19.7292 19.2832H16.1727V32.345H20.9018C21.4267 32.3531 21.9476 32.2496 22.4314 32.0408C22.9153 31.832 23.3516 31.5225 23.7129 31.1319C24.0898 30.757 24.3878 30.3068 24.5885 29.8092C24.7893 29.3116 24.8886 28.7772 24.8803 28.2388C24.891 27.6968 24.7937 27.1582 24.5943 26.6562C24.3949 26.1541 24.0976 25.6991 23.7206 25.319C23.4238 25.0555 23.0949 24.8325 22.7422 24.6555C23.0511 24.1023 23.2326 23.484 23.2728 22.8479L23.2599 22.8585ZM20.9096 29.7889H18.7249V26.6196C19.5015 26.6196 20.1512 26.5825 20.9096 26.6196C21.3055 26.6475 21.677 26.8264 21.9506 27.1212C22.2242 27.416 22.3801 27.8053 22.3876 28.2122C22.391 28.4142 22.3554 28.6149 22.2829 28.8028C22.2103 28.9906 22.1022 29.1619 21.9648 29.3067C21.8275 29.4516 21.6635 29.5671 21.4824 29.6466C21.3013 29.7262 21.1066 29.7682 20.9096 29.7703V29.7889ZM20.7957 22.9647C20.7886 23.272 20.6697 23.5655 20.4623 23.7875C20.2549 24.0095 19.974 24.144 19.6749 24.1644C19.2659 24.1963 18.9475 24.2175 18.7197 24.2281V21.8393H19.7241C20.0115 21.8462 20.2849 21.9686 20.4853 22.18C20.6857 22.3915 20.7971 22.6751 20.7957 22.97V22.9647Z" fill="white"/>
<path d="M36.6919 30.4422L34.8913 28.5978C34.547 29.0059 34.1241 29.3369 33.649 29.5702C33.1739 29.8035 32.6568 29.934 32.1302 29.9536C31.6035 29.9731 31.0786 29.8814 30.5882 29.684C30.0978 29.4866 29.6524 29.1878 29.2801 28.8064C28.9077 28.425 28.6162 27.969 28.424 27.4671C28.2317 26.9652 28.1427 26.4281 28.1626 25.8895C28.1825 25.3508 28.3108 24.8221 28.5396 24.3365C28.7683 23.8508 29.0925 23.4187 29.492 23.0671C29.8394 22.6951 30.2585 22.4009 30.7227 22.2031C31.187 22.0052 31.6863 21.908 32.1891 21.9176C32.693 21.9111 33.193 22.0097 33.6584 22.2073C34.1239 22.4049 34.5451 22.6975 34.8964 23.0671L36.6996 21.2226C35.4894 20.012 33.8665 19.33 32.1738 19.3207V19.2894C31.3121 19.2499 30.4515 19.3895 29.644 19.6996C28.8365 20.0097 28.0988 20.4839 27.4754 21.0937C26.852 21.7035 26.3558 22.4361 26.0168 23.2474C25.6779 24.0587 25.5031 24.9318 25.5031 25.8141C25.5031 26.6964 25.6779 27.5696 26.0168 28.3809C26.3558 29.1922 26.852 29.9248 27.4754 30.5345C28.0988 31.1443 28.8365 31.6186 29.644 31.9287C30.4515 32.2388 31.3121 32.3783 32.1738 32.3389C33.0129 32.3443 33.8447 32.1794 34.6211 31.8539C35.3975 31.5283 36.1031 31.0485 36.6971 30.4422H36.6919Z" fill="white"/>
<path d="M56.9344 38.1147C56.7689 38.2612 56.5789 38.3784 56.3731 38.4611C56.1878 38.5299 55.9912 38.5643 55.7933 38.5626C55.5077 38.5839 55.2248 38.4963 55.0026 38.3178C54.915 38.2386 54.8461 38.1413 54.8005 38.0329C54.755 37.9245 54.734 37.8076 54.7391 37.6903C54.7377 37.5476 54.7731 37.4069 54.8419 37.2815C54.9054 37.1638 54.9956 37.0623 55.1054 36.9847C55.2212 36.909 55.3484 36.8519 55.4823 36.8154C55.6361 36.7806 55.7919 36.7545 55.9488 36.7373C56.2658 36.7088 56.5791 36.6495 56.8843 36.5602C56.8843 36.4899 56.8843 36.4431 56.8843 36.4248C56.8928 36.3447 56.8838 36.2637 56.8579 36.1874C56.832 36.111 56.7898 36.041 56.7341 35.9822C56.5632 35.8531 56.3505 35.7902 56.1359 35.8051C55.9439 35.7913 55.7523 35.8368 55.5877 35.9353C55.4498 36.052 55.3568 36.2119 55.3242 36.3884L54.8129 36.3181C54.8468 36.1291 54.9254 35.9507 55.0422 35.7973C55.1655 35.655 55.3259 35.5487 55.506 35.49C55.7323 35.4134 55.9705 35.3763 56.2097 35.3807C56.4297 35.3735 56.6493 35.4052 56.858 35.4744C56.9978 35.5185 57.1233 35.5985 57.2217 35.7062C57.303 35.8093 57.3589 35.9296 57.3851 36.0577C57.4076 36.2155 57.4164 36.3749 57.4114 36.5342V37.2216C57.4039 37.5266 57.4144 37.8318 57.4431 38.1356C57.4653 38.2641 57.509 38.3882 57.5722 38.5027H57.024C56.9681 38.3818 56.9334 38.2524 56.9212 38.1199L56.9344 38.1147ZM56.8949 36.9664C56.617 37.0637 56.3287 37.1292 56.0357 37.1617C55.8794 37.1777 55.7255 37.2118 55.5772 37.2633C55.4935 37.2988 55.4214 37.3564 55.369 37.4299C55.3209 37.5037 55.2953 37.5896 55.2952 37.6773C55.294 37.7425 55.3079 37.8071 55.3357 37.8662C55.3636 37.9253 55.4047 37.9773 55.4559 38.0184C55.5885 38.1184 55.7533 38.1675 55.9198 38.1564C56.1039 38.1584 56.2854 38.1136 56.4469 38.0262C56.5979 37.9473 56.7191 37.8221 56.7921 37.6695C56.8589 37.5042 56.8877 37.3263 56.8764 37.1487V36.9612L56.8949 36.9664ZM59.757 38.4975V34.2792H60.2841V38.4975H59.757ZM62.6217 38.4975V34.2792H63.1488V38.4975H62.6217ZM67.6897 34.9901V35.5916H67.1283V35.1125C67.1158 34.9228 67.1483 34.7329 67.2232 34.5579C67.3096 34.4019 67.4471 34.2798 67.6132 34.2115L67.7371 34.4146C67.6375 34.4505 67.5536 34.5196 67.4999 34.6099C67.442 34.7284 67.4131 34.8586 67.4156 34.9901H67.6897ZM70.4938 38.4923H70.0062V34.274H70.5333V35.7713C70.6326 35.643 70.7607 35.5393 70.9075 35.4683C71.0544 35.3974 71.2159 35.3611 71.3793 35.3625C71.5612 35.3638 71.7407 35.4029 71.9064 35.477C72.0707 35.548 72.2153 35.657 72.3281 35.7947C72.446 35.9431 72.5353 36.1117 72.5916 36.292C72.6563 36.4923 72.6883 36.7015 72.6865 36.9118C72.7141 37.3498 72.574 37.782 72.2938 38.1226C72.1776 38.2575 72.0329 38.3656 71.87 38.4394C71.707 38.5131 71.5296 38.5508 71.3503 38.5496C71.1818 38.5558 71.0145 38.519 70.8645 38.4429C70.7145 38.3667 70.5868 38.2537 70.4938 38.1147V38.4975V38.4923ZM70.4938 36.943C70.4763 37.2117 70.5279 37.4805 70.644 37.7242C70.7083 37.8445 70.8046 37.9452 70.9226 38.0154C71.0406 38.0856 71.1757 38.1226 71.3134 38.1226C71.4285 38.122 71.542 38.0952 71.6449 38.0442C71.7477 37.9931 71.8372 37.9192 71.9064 37.8283C72.091 37.5737 72.1796 37.2632 72.1568 36.9508C72.1823 36.638 72.0976 36.3262 71.9169 36.0681C71.8485 35.9804 71.7607 35.9092 71.6602 35.8601C71.5597 35.8109 71.4493 35.785 71.3371 35.7843C71.2221 35.7854 71.1089 35.8125 71.0061 35.8635C70.9033 35.9145 70.8137 35.988 70.7442 36.0785C70.5572 36.3236 70.4638 36.6261 70.4806 36.9326L70.4938 36.943ZM74.6736 36.9638C74.6542 36.7326 74.6872 36.4999 74.7702 36.2828C74.8531 36.0657 74.984 35.8696 75.1533 35.7088C75.4243 35.4818 75.7705 35.3613 76.1257 35.3703C76.3211 35.3616 76.5161 35.394 76.6978 35.4654C76.8796 35.5368 77.0439 35.6455 77.1799 35.7843C77.3205 35.9379 77.4288 36.1176 77.4985 36.313C77.5682 36.5083 77.5978 36.7154 77.5858 36.9222C77.6006 37.2399 77.5392 37.5567 77.4066 37.8465C77.2883 38.0689 77.1045 38.2505 76.8795 38.3673C76.6507 38.4904 76.3941 38.554 76.1337 38.5522C75.9388 38.5607 75.7442 38.5287 75.5627 38.4583C75.3811 38.3879 75.2165 38.2806 75.0795 38.1434C74.7938 37.8157 74.6499 37.3902 74.6789 36.9586L74.6736 36.9638ZM75.2007 36.9638C75.1788 37.2773 75.2724 37.5881 75.4642 37.8387C75.5461 37.932 75.6473 38.0067 75.761 38.058C75.8747 38.1092 75.9982 38.1357 76.1231 38.1357C76.248 38.1357 76.3715 38.1092 76.4852 38.058C76.5989 38.0067 76.7001 37.932 76.782 37.8387C76.9755 37.5819 77.0691 37.2649 77.0455 36.9456C77.067 36.6378 76.9732 36.3329 76.782 36.0889C76.7006 35.9949 76.5995 35.9194 76.4858 35.8677C76.3721 35.8159 76.2483 35.7892 76.1231 35.7892C75.9979 35.7892 75.8742 35.8159 75.7604 35.8677C75.6467 35.9194 75.5456 35.9949 75.4642 36.0889C75.2724 36.3396 75.1788 36.6503 75.2007 36.9638ZM81.7366 38.4897V38.0366C81.6331 38.1996 81.4887 38.3332 81.3173 38.4245C81.1459 38.5158 80.9535 38.5616 80.7589 38.5574C80.5832 38.5587 80.4091 38.5241 80.2476 38.4558C80.1097 38.4009 79.9888 38.3111 79.8971 38.1955C79.8159 38.08 79.761 37.9485 79.7363 37.8101C79.7157 37.6521 79.7095 37.4926 79.7179 37.3336V35.4406H80.2449V37.1331C80.2387 37.3151 80.2493 37.4972 80.2766 37.6773C80.3026 37.8062 80.3769 37.9206 80.4848 37.9976C80.6002 38.078 80.7389 38.1191 80.8801 38.1147C81.0356 38.1151 81.1884 38.0747 81.3228 37.9976C81.4535 37.924 81.5555 37.8095 81.6127 37.6721C81.6793 37.4805 81.7089 37.2782 81.6997 37.0758V35.4406H82.2268V38.4975L81.7366 38.4897ZM85.7109 38.0288L85.782 38.4845C85.6523 38.5137 85.5198 38.5294 85.3867 38.5314C85.2339 38.5397 85.0815 38.5092 84.944 38.4428C84.8471 38.3897 84.7696 38.3076 84.7226 38.2085C84.6677 38.0084 84.6464 37.8008 84.6593 37.594V35.8338H84.2719V35.4328H84.6593V34.6776L85.1864 34.3652V35.4328H85.7135V35.8338H85.1864V37.6252C85.1803 37.7207 85.1901 37.8166 85.2154 37.909C85.2323 37.9522 85.264 37.9881 85.305 38.0106C85.3599 38.0398 85.422 38.0534 85.4842 38.0496C85.561 38.0476 85.6376 38.0406 85.7135 38.0288H85.7109ZM91.443 37.37L91.97 37.4429C91.9299 37.7579 91.7765 38.0481 91.5378 38.2606C91.2992 38.4586 90.9954 38.5633 90.6839 38.5548C90.4946 38.5629 90.3057 38.5306 90.1302 38.4601C89.9546 38.3895 89.7965 38.2824 89.6667 38.146C89.3904 37.819 89.2526 37.3992 89.2819 36.9742C89.2753 36.6778 89.3319 36.3833 89.4479 36.1098C89.5464 35.8733 89.7241 35.6775 89.9513 35.5551C90.1766 35.4304 90.4309 35.3657 90.6892 35.3677C90.9856 35.3572 91.2765 35.4493 91.5115 35.6281C91.7324 35.808 91.8788 36.0619 91.9226 36.3415L91.4166 36.4196C91.3816 36.2411 91.2892 36.0785 91.1531 35.9561C91.0281 35.8517 90.8687 35.7961 90.705 35.7999C90.583 35.7963 90.4617 35.8197 90.35 35.8683C90.2383 35.917 90.139 35.9897 90.0593 36.0811C89.8734 36.338 89.7857 36.6517 89.8116 36.9664C89.7835 37.2827 89.8684 37.5987 90.0514 37.8596C90.1275 37.949 90.2228 38.0204 90.3304 38.0686C90.438 38.1169 90.5553 38.1406 90.6734 38.1382C90.7693 38.1431 90.8651 38.1293 90.9556 38.0976C91.046 38.0659 91.1293 38.0168 91.2005 37.9533C91.3536 37.7978 91.4469 37.5942 91.464 37.3779L91.443 37.37ZM93.944 34.8625V34.2714H94.4711V34.8625H93.944ZM93.944 38.4897V35.4354H94.4711V38.4923L93.944 38.4897ZM96.8061 38.4897V35.4354H97.2778V35.8702C97.3832 35.7092 97.5294 35.5784 97.7018 35.4906C97.8743 35.4029 98.0671 35.3614 98.2609 35.3703C98.4416 35.3672 98.621 35.4009 98.7879 35.4692C98.9261 35.5237 99.0471 35.6136 99.1385 35.7296C99.219 35.8447 99.2746 35.975 99.3019 36.1124C99.3254 36.2788 99.3351 36.4469 99.3308 36.6149V38.4923H98.8038V36.6357C98.8119 36.4755 98.7913 36.3151 98.7431 36.1618C98.7039 36.0529 98.6275 35.9608 98.527 35.9015C98.4171 35.8371 98.2911 35.8046 98.1633 35.8077C97.951 35.8039 97.7449 35.8792 97.5862 36.0186C97.4925 36.1279 97.4226 36.255 97.3809 36.3921C97.3392 36.5292 97.3265 36.6733 97.3437 36.8154V38.4819L96.8061 38.4897ZM103.772 37.5002L104.314 37.5705C104.245 37.8586 104.079 38.1149 103.843 38.297C103.585 38.4778 103.273 38.5693 102.957 38.5574C102.759 38.567 102.561 38.5354 102.377 38.4645C102.192 38.3936 102.024 38.2851 101.885 38.146C101.605 37.8266 101.463 37.4115 101.489 36.9899C101.46 36.556 101.604 36.1281 101.89 35.7973C102.022 35.6568 102.183 35.5459 102.362 35.4723C102.541 35.3986 102.734 35.3638 102.928 35.3703C103.117 35.3639 103.306 35.3978 103.48 35.4696C103.655 35.5415 103.812 35.6497 103.94 35.7869C104.219 36.1131 104.359 36.5327 104.333 36.9586C104.333 36.9899 104.333 37.0367 104.333 37.0966H102.027C102.024 37.3832 102.127 37.6611 102.317 37.8778C102.4 37.9632 102.5 38.0305 102.61 38.0753C102.721 38.1202 102.84 38.1416 102.96 38.1382C103.136 38.1429 103.309 38.0908 103.453 37.9898C103.605 37.8636 103.717 37.6961 103.774 37.508L103.772 37.5002ZM102.056 36.6696H103.777C103.772 36.4616 103.703 36.26 103.579 36.0915C103.503 35.9951 103.405 35.9178 103.292 35.8658C103.18 35.8138 103.057 35.7885 102.934 35.7921C102.821 35.7893 102.71 35.8091 102.606 35.8503C102.501 35.8915 102.407 35.9532 102.327 36.0316C102.161 36.2037 102.067 36.4317 102.064 36.6696H102.056ZM106.515 38.4923V35.4354H106.987V35.8676C107.089 35.7171 107.227 35.5944 107.39 35.5109C107.557 35.4176 107.746 35.37 107.938 35.3729C108.136 35.3648 108.332 35.4137 108.502 35.5135C108.646 35.607 108.755 35.7453 108.811 35.9067C108.91 35.7434 109.051 35.6085 109.219 35.5149C109.387 35.4214 109.577 35.3724 109.77 35.3729C109.9 35.3654 110.031 35.3847 110.153 35.4295C110.276 35.4743 110.387 35.5437 110.481 35.6333C110.573 35.7409 110.642 35.8653 110.684 35.9994C110.727 36.1334 110.742 36.2745 110.729 36.4144V38.5105H110.202V36.5863C110.208 36.4362 110.191 36.2861 110.152 36.141C110.116 36.0489 110.05 35.9711 109.965 35.9197C109.87 35.863 109.76 35.8341 109.649 35.8364C109.548 35.8342 109.448 35.8519 109.355 35.8886C109.262 35.9253 109.177 35.9801 109.106 36.0499C108.946 36.2423 108.868 36.4891 108.89 36.7373V38.5105H108.363V36.5264C108.376 36.344 108.332 36.1619 108.236 36.0056C108.186 35.9449 108.122 35.8973 108.048 35.8668C107.975 35.8364 107.896 35.8242 107.817 35.8312C107.673 35.8306 107.531 35.8703 107.408 35.9457C107.285 36.0268 107.193 36.1458 107.145 36.2842C107.082 36.4908 107.054 36.7065 107.063 36.9222V38.5053L106.515 38.4923ZM115.054 38.1147C114.887 38.2613 114.697 38.3785 114.49 38.4611C114.306 38.5297 114.11 38.5641 113.913 38.5626C113.627 38.5825 113.345 38.4951 113.122 38.3178C113.035 38.2382 112.966 38.1409 112.921 38.0326C112.875 37.9243 112.854 37.8075 112.859 37.6903C112.857 37.5476 112.893 37.4069 112.961 37.2815C113.026 37.1644 113.116 37.0629 113.225 36.9847C113.342 36.9091 113.47 36.8521 113.604 36.8154C113.758 36.7806 113.914 36.7545 114.071 36.7373C114.388 36.7083 114.701 36.649 115.006 36.5602C115.006 36.4899 115.006 36.4431 115.006 36.4248C115.015 36.345 115.006 36.2643 114.98 36.188C114.955 36.1117 114.914 36.0416 114.859 35.9822C114.688 35.8531 114.475 35.7902 114.261 35.8051C114.069 35.7909 113.877 35.8364 113.712 35.9353C113.575 36.052 113.482 36.2119 113.449 36.3884L112.935 36.3181C112.971 36.1292 113.05 35.9511 113.167 35.7973C113.289 35.6538 113.45 35.5473 113.631 35.49C113.857 35.4132 114.095 35.3761 114.334 35.3807C114.554 35.3738 114.772 35.4055 114.98 35.4744C115.12 35.5178 115.246 35.5979 115.344 35.7062C115.427 35.8084 115.484 35.929 115.51 36.0577C115.53 36.2157 115.538 36.375 115.534 36.5342V37.2216C115.526 37.5267 115.538 37.8319 115.568 38.1356C115.589 38.2644 115.633 38.3887 115.697 38.5027H115.146C115.091 38.3816 115.057 38.2522 115.046 38.1199L115.054 38.1147ZM115.012 36.9664C114.734 37.064 114.446 37.1295 114.153 37.1617C113.996 37.1777 113.842 37.2118 113.694 37.2633C113.611 37.2981 113.539 37.3559 113.488 37.4299C113.428 37.5216 113.404 37.6316 113.419 37.7397C113.435 37.8479 113.489 37.9468 113.573 38.0184C113.706 38.1188 113.872 38.1679 114.039 38.1564C114.223 38.1585 114.405 38.1137 114.566 38.0262C114.718 37.9468 114.84 37.8219 114.914 37.6695C114.98 37.5038 115.008 37.3263 114.999 37.1487V36.9612L115.012 36.9664Z" fill="white"/>
<path d="M54.7366 32.6752V20.5049H51.6282V19.3968H59.15V20.5049H55.9863V32.6752H54.7366ZM65.496 19.3968H67.0278L72.7014 32.6752H71.3067L69.4612 28.1429H62.9123L61.0957 32.6752H59.6773L65.4907 19.3968H65.496ZM66.2025 20.647L63.4764 26.8743H68.9049L66.2025 20.647ZM76.0523 31.4066H81.5889V32.6752H74.7868V19.3968H76.0602V31.4066H76.0523ZM83.2973 32.6752V19.3968H84.5681V26.8743L90.6635 19.3968H92.2454L87.1386 25.7452L92.3693 32.6752H90.653L86.2343 26.7322L84.5575 28.8878V32.6752H83.2867H83.2973ZM95.4487 32.6752H94.0356V19.3968H95.4487V32.6752ZM98.3488 32.6752V19.3968H105.718V20.647H99.6275V25.3425H105.581V26.59H99.6275V31.4066H105.723V32.6752H98.3488ZM108.847 28.8878C108.995 29.7756 109.304 30.424 109.775 30.8328C110.197 31.2222 110.737 31.4595 111.31 31.5066H111.449C112.146 31.5035 112.817 31.2461 113.337 30.7828C113.606 30.5717 113.822 30.3022 113.971 29.9947C114.119 29.6873 114.196 29.3501 114.194 29.0088C114.193 28.8671 114.183 28.7256 114.165 28.5851C114.143 28.4343 114.106 28.2862 114.054 28.1429C114.026 28.047 113.991 27.953 113.951 27.8613C113.913 27.7696 113.866 27.6815 113.812 27.5981C113.606 27.275 113.306 27.0225 112.952 26.8743C112.544 26.6895 112.123 26.5347 111.692 26.4111C111.571 26.369 111.447 26.3321 111.317 26.2979C111.188 26.2637 111.067 26.2295 110.946 26.1873C110.183 25.9313 109.47 25.5467 108.837 25.0503C108.19 24.545 107.866 23.6484 107.866 22.3605C107.846 21.9125 107.941 21.4668 108.142 21.0662C108.344 20.6656 108.646 20.3237 109.019 20.0733C109.762 19.5519 110.651 19.2758 111.56 19.2837C112.344 19.2662 113.108 19.5232 113.722 20.0101C114.275 20.4291 114.718 20.9754 115.014 21.6024C115.077 21.7702 115.131 21.9416 115.175 22.1157C115.214 22.2777 115.234 22.4438 115.235 22.6105V22.771H113.962C113.852 22.1402 113.549 21.5589 113.094 21.1076C112.731 20.7542 112.273 20.513 111.776 20.4128C111.706 20.3989 111.634 20.3893 111.563 20.3838C111.492 20.3801 111.422 20.3801 111.352 20.3838C110.804 20.3874 110.275 20.583 109.857 20.9366C109.637 21.1086 109.458 21.3272 109.332 21.5766C109.207 21.8259 109.139 22.0999 109.132 22.3789C109.134 22.3919 109.134 22.4053 109.132 22.4184C109.128 22.4313 109.128 22.4449 109.132 22.4578C109.137 22.4777 109.137 22.4985 109.132 22.5184C109.129 22.5323 109.129 22.5466 109.132 22.5605C109.132 23.4747 109.411 24.0888 109.97 24.4029C110.581 24.7462 111.237 25.0039 111.919 25.1688L112.201 25.2504L112.483 25.3293C113.171 25.5315 113.829 25.8226 114.442 26.1952C115.06 26.5707 115.478 27.2296 115.694 28.1719C115.691 28.2122 115.691 28.2526 115.694 28.2929C115.698 28.3332 115.698 28.3737 115.694 28.414C115.692 28.4186 115.691 28.4235 115.691 28.4285C115.691 28.4335 115.692 28.4384 115.694 28.443C115.696 28.4475 115.697 28.4524 115.697 28.4574C115.697 28.4624 115.696 28.4673 115.694 28.4719C115.69 28.5464 115.69 28.6211 115.694 28.6956C115.694 28.7614 115.694 28.822 115.694 28.8772C115.694 29.0287 115.683 29.1799 115.662 29.3299C115.641 29.4893 115.611 29.6474 115.573 29.8037C115.325 30.62 114.86 31.3541 114.228 31.9277C113.54 32.5841 112.628 32.9556 111.676 32.9673C110.635 32.975 109.629 32.5895 108.86 31.8882C108.045 31.1688 107.564 30.1783 107.418 28.9167L108.831 28.8957L108.847 28.8878Z" fill="white"/>
<path d="M117.702 21.1489V19.5101H116.941V19.2828H118.772V19.5101H118.008V21.1489H117.702ZM119.08 21.1489V19.2919H119.538L120.084 20.6057C120.135 20.7284 120.172 20.8216 120.195 20.8807C120.22 20.8148 120.263 20.7148 120.319 20.583L120.885 19.2919H121.295V21.1489H121.012V19.5965L120.316 21.1489H120.033L119.369 19.5579V21.1489H119.08Z" fill="white"/>
</svg>
